<?xml version="1.0" encoding="UTF-8" standalone="no"?>
<svg
   version="1.1"
   id="svg833"
   width="450"
   height="150"
   viewBox="0 0 450 150"
   sodipodi:docname="hetzner-cloud.svg"
   inkscape:version="1.1 (c68e22c387, 2021-05-23)"
   xmlns:inkscape="http://www.inkscape.org/namespaces/inkscape"
   xmlns:sodipodi="http://sodipodi.sourceforge.net/DTD/sodipodi-0.dtd"
   xmlns="http://www.w3.org/2000/svg"
   xmlns:svg="http://www.w3.org/2000/svg"
   xmlns:rdf="http://www.w3.org/1999/02/22-rdf-syntax-ns#"
   xmlns:cc="http://creativecommons.org/ns#"
   xmlns:dc="http://purl.org/dc/elements/1.1/">
  <metadata
     id="metadata839">
    <rdf:RDF>
      <cc:Work
         rdf:about="">
        <dc:format>image/svg+xml</dc:format>
        <dc:type
           rdf:resource="http://purl.org/dc/dcmitype/StillImage" />
      </cc:Work>
    </rdf:RDF>
  </metadata>
  <defs
     id="defs837">
    <rect
       x="-8.622263"
       y="66.90876"
       width="86.56752"
       height="34.144161"
       id="rect858" />
  </defs>
  <sodipodi:namedview
     inkscape:document-rotation="0"
     pagecolor="#ffffff"
     bordercolor="#666666"
     borderopacity="1"
     objecttolerance="10"
     gridtolerance="10"
     guidetolerance="10"
     inkscape:pageopacity="0"
     inkscape:pageshadow="2"
     inkscape:window-width="5120"
     inkscape:window-height="1369"
     id="namedview835"
     showgrid="false"
     inkscape:zoom="2.8994709"
     inkscape:cx="67.426095"
     inkscape:cy="26.039234"
     inkscape:window-x="-8"
     inkscape:window-y="950"
     inkscape:window-maximized="1"
     inkscape:current-layer="g841"
     inkscape:pagecheckerboard="0" />
  <g
     inkscape:groupmode="layer"
     inkscape:label="Image"
     id="g841">
    <rect
       style="fill:#d4092d;fill-opacity:1;stroke:none;stroke-width:33.9411"
       id="rect853"
       width="451.11676"
       height="151.06203"
       x="-1.9362135e-06"
       y="0.41423252"
       ry="0" />
    <g
       id="g919"
       style="fill:#ffffff"
       transform="matrix(3.1978192,0,0,3.6239225,50.081899,-127.95608)">
      <path
         style="fill:#ffffff;fill-opacity:1;stroke-width:0.124944"
         d="m 8.1851104,53.260222 c -0.032942,-0.08589 -0.045232,-2.658192 -0.027316,-5.716205 l 0.032584,-5.560026 1.17653,-0.0362 c 0.8570156,-0.02637 1.2042956,0.0076 1.2787666,0.124949 0.05623,0.08863 0.103103,1.131025 0.104143,2.316434 l 0.002,2.155292 h 3.245739 3.24573 l 0.03403,-2.280235 0.03403,-2.280236 1.122308,-0.03652 c 0.947694,-0.03083 1.146952,-0.0029 1.280686,0.180061 0.229888,0.314395 0.229888,10.768471 0,11.082865 -0.133734,0.182887 -0.332992,0.210903 -1.280686,0.180062 l -1.122308,-0.03653 -0.03403,-2.280235 -0.03403,-2.280235 h -3.245734 -3.245737 v 2.113836 c 0,1.16261 -0.03414,2.202772 -0.07583,2.311471 -0.06174,0.160873 -0.294876,0.197635 -1.2533647,0.197635 -0.8267759,0 -1.1953693,-0.04652 -1.2374272,-0.15618 z m 13.7443646,0.0013 c -0.03326,-0.08659 -0.04572,-2.659453 -0.02786,-5.717466 l 0.03262,-5.560026 h 5.747439 5.747439 v 1.124493 1.124499 l -4.529235,0.03279 -4.529232,0.0328 v 1.121054 1.121054 l 3.654628,0.03312 3.654616,0.03312 v 1.062028 1.062027 l -3.654616,0.03312 -3.654628,0.03312 v 1.121054 1.121054 l 4.529232,0.0328 4.529235,0.0328 v 1.124513 1.1245 l -5.719646,0.03249 c -4.508917,0.02562 -5.732426,-8.62e-4 -5.780023,-0.124949 z m 18.136714,-0.03852 c -0.04264,-0.111015 -0.07744,-2.163819 -0.07744,-4.561792 v -4.359945 l -2.217759,-0.03413 -2.217759,-0.03413 v -1.124499 -1.1245 l 5.684971,-0.03279 c 6.494268,-0.03745 5.997323,-0.130831 5.997323,1.126911 0,1.252506 0.06859,1.217351 -2.37678,1.217351 h -2.118101 l -0.03275,4.529233 -0.03275,4.529235 -1.265698,0.03543 c -1.071256,0.02999 -1.277604,0.0045 -1.343154,-0.1664 z m 9.119791,-0.003 c -0.162553,-0.423611 -0.07513,-1.61501 0.142994,-1.950016 0.119952,-0.184095 1.789638,-1.814619 3.710546,-3.623386 l 3.492524,-3.288678 -3.611309,-0.03319 c -2.698123,-0.0248 -3.636096,-0.07219 -3.709288,-0.187416 -0.128429,-0.2022 -0.126888,-1.857969 0.0013,-2.0609 0.07847,-0.123691 1.330684,-0.150486 5.83924,-0.124949 l 5.739284,0.03252 0.03648,0.895502 c 0.03416,0.839195 0.01335,0.921686 -0.332608,1.311916 -0.202995,0.229027 -1.973087,1.822037 -3.933513,3.540023 -1.960425,1.717986 -3.567785,3.164351 -3.571906,3.214144 -0.0038,0.04979 1.693303,0.05512 3.772064,0.01182 3.333131,-0.06939 3.798636,-0.05569 3.941,0.116011 0.110835,0.133653 0.14998,0.521653 0.124963,1.237591 l -0.03648,1.042896 -5.764841,0.03246 c -5.175682,0.02915 -5.772636,0.0122 -5.841154,-0.166399 z m 13.726519,0.04478 c -0.0339,-0.08841 -0.047,-2.662747 -0.02902,-5.720761 l 0.03262,-5.560025 h 4.56048 c 4.445523,0 4.573273,0.0068 5.068767,0.272077 0.644702,0.345094 1.379729,1.155263 1.722996,1.899157 0.251645,0.545333 0.268842,0.805133 0.308539,4.658521 0.02928,2.842394 -2.18e-4,4.160144 -0.0976,4.341817 -0.124576,0.232821 -0.252737,0.26084 -1.19284,0.26084 -0.91343,0 -1.070396,-0.03208 -1.182579,-0.241675 -0.08091,-0.151152 -0.129329,-1.64244 -0.129329,-3.981371 0,-3.648904 -0.0064,-3.748068 -0.271307,-4.084602 -0.553351,-0.70346 -1.035617,-0.807519 -3.756601,-0.810547 l -2.466091,-0.0029 -0.03275,4.529235 -0.03275,4.529234 -1.220388,0.03579 c -0.906148,0.02657 -1.236263,-0.0057 -1.282035,-0.12495 z m 13.636299,-0.04478 c -0.0994,-0.25895 -0.09979,-10.841963 -3.6e-4,-11.100853 0.06768,-0.176246 0.696268,-0.197639 5.807557,-0.197639 h 5.731703 l 0.07114,0.283739 c 0.0392,0.156057 0.05434,0.676136 0.03369,1.155737 l -0.03763,0.871989 -4.529232,0.03279 -4.529233,0.0328 v 1.121054 1.121052 l 3.654628,0.03313 3.654621,0.03312 v 1.062028 1.062026 l -3.654621,0.03311 -3.654628,0.03313 v 1.121054 1.121054 l 4.529233,0.0328 4.529232,0.0328 v 1.124499 1.124501 l -5.764838,0.03247 c -5.175672,0.02915 -5.772625,0.0122 -5.841142,-0.166399 z m 13.726583,0.04497 c -0.03387,-0.0885 -0.04699,-2.662912 -0.02918,-5.720926 l 0.03258,-5.560025 4.24155,-0.03293 c 4.810326,-0.03734 5.199631,0.01444 6.078439,0.80837 0.70078,0.633107 1.07654,1.335902 1.23021,2.300811 0.32133,2.017753 -0.4221,3.273523 -2.315498,3.911211 l -0.861509,0.290155 1.904437,1.929472 c 1.04744,1.061212 1.90445,1.996039 1.90445,2.077397 0,0.227539 -2.786235,0.200861 -3.223528,-0.03086 -0.185566,-0.09834 -1.068324,-0.917475 -1.961661,-1.82032 -0.893356,-0.902845 -1.776099,-1.721992 -1.961675,-1.820325 -0.220701,-0.116947 -0.727339,-0.178787 -1.464923,-0.178787 h -1.127542 l -0.03442,1.967875 -0.03442,1.967874 -1.157849,0.03596 c -0.855943,0.02657 -1.173931,-0.006 -1.219549,-0.124949 z m 8.36283,-6.36293 c 0.335215,-0.152731 0.699089,-0.789724 0.699089,-1.223791 0,-0.420817 -0.329802,-1.099949 -0.605925,-1.247727 -0.159784,-0.08552 -1.308712,-0.135005 -3.134182,-0.135005 h -2.881934 v 1.374389 1.374387 h 2.805365 c 1.83174,0 2.913728,-0.04937 3.117587,-0.142257 z"
         id="path845" />
      <g
         style="font-style:normal;font-variant:normal;font-weight:normal;font-stretch:normal;font-size:9.6px;line-height:1.25;font-family:'Liberation Sans';-inkscape-font-specification:'Liberation Sans';white-space:pre;shape-inside:url(#rect858);fill:#ffffff;fill-opacity:1;stroke:#ffffff;stroke-width:0.432124;stroke-miterlimit:4;stroke-dasharray:none;stroke-opacity:1"
         id="text856"
         transform="matrix(1.9789387,0,0,1.5404883,38.973341,-47.345461)"
         aria-label="CLOUD">
        <path
           id="path839"
           style="font-style:normal;font-variant:normal;font-weight:normal;font-stretch:normal;font-family:'Liberation Sans';-inkscape-font-specification:'Liberation Sans';fill:#ffffff;fill-opacity:1;stroke:#ffffff;stroke-width:0.432124;stroke-miterlimit:4;stroke-dasharray:none;stroke-opacity:1"
           d="m -4.9105467,69.583571 q -1.0968751,0 -1.7062501,0.707812 -0.609375,0.703125 -0.609375,1.93125 0,1.214063 0.6328125,1.954688 0.6375,0.735937 1.7203126,0.735937 1.3875,0 2.0859376,-1.373437 l 0.73125,0.365625 q -0.4078125,0.853125 -1.1484376,1.298437 -0.7359375,0.445313 -1.7109375,0.445313 -0.9984376,0 -1.7296876,-0.4125 -0.7265625,-0.417188 -1.1109375,-1.185938 -0.3796876,-0.773437 -0.3796876,-1.828125 0,-1.579687 0.8531251,-2.475 0.853125,-0.895312 2.3625001,-0.895312 1.0546875,0 1.7625,0.4125 0.7078126,0.4125 1.0406251,1.223437 l -0.8484376,0.28125 q -0.2296875,-0.576562 -0.740625,-0.88125 -0.50625,-0.304687 -1.2046875,-0.304687 z" />
        <path
           id="path841"
           style="font-style:normal;font-variant:normal;font-weight:normal;font-stretch:normal;font-family:'Liberation Sans';-inkscape-font-specification:'Liberation Sans';fill:#ffffff;fill-opacity:1;stroke:#ffffff;stroke-width:0.432124;stroke-miterlimit:4;stroke-dasharray:none;stroke-opacity:1"
           d="m -0.89804637,75.555446 v -6.604688 h 0.89531254 v 5.873438 H 3.3347663 v 0.73125 z" />
        <path
           id="path843"
           style="font-style:normal;font-variant:normal;font-weight:normal;font-stretch:normal;font-family:'Liberation Sans';-inkscape-font-specification:'Liberation Sans';fill:#ffffff;fill-opacity:1;stroke:#ffffff;stroke-width:0.432124;stroke-miterlimit:4;stroke-dasharray:none;stroke-opacity:1"
           d="m 10.666016,72.222633 q 0,1.035938 -0.398438,1.814063 -0.3937496,0.778125 -1.1343747,1.195312 -0.740625,0.417188 -1.7484375,0.417188 -1.0171876,0 -1.7578126,-0.4125 -0.7359375,-0.4125 -1.125,-1.190625 -0.3890626,-0.782813 -0.3890626,-1.823438 0,-1.584375 0.8671876,-2.475 0.8671875,-0.895312 2.4140626,-0.895312 1.0078125,0 1.7484375,0.403125 0.7406251,0.398437 1.1296877,1.1625 0.39375,0.764062 0.39375,1.804687 z m -0.9140626,0 q 0,-1.232812 -0.6187501,-1.935937 -0.6140625,-0.703125 -1.7390625,-0.703125 -1.1343751,0 -1.7531251,0.69375 -0.61875,0.69375 -0.61875,1.945312 0,1.242188 0.6234375,1.973438 0.628125,0.726562 1.7390626,0.726562 1.14375,0 1.753125,-0.703125 0.6140626,-0.707812 0.6140626,-1.996875 z" />
        <path
           id="path846"
           style="font-style:normal;font-variant:normal;font-weight:normal;font-stretch:normal;font-family:'Liberation Sans';-inkscape-font-specification:'Liberation Sans';fill:#ffffff;fill-opacity:1;stroke:#ffffff;stroke-width:0.432124;stroke-miterlimit:4;stroke-dasharray:none;stroke-opacity:1"
           d="m 14.547267,75.649196 q -0.810937,0 -1.415625,-0.295313 -0.604687,-0.295312 -0.9375,-0.857812 -0.332812,-0.5625 -0.332812,-1.340625 v -4.204688 h 0.895312 v 4.129688 q 0,0.904687 0.459375,1.373437 0.459375,0.46875 1.326563,0.46875 0.890625,0 1.382812,-0.482812 0.496875,-0.4875 0.496875,-1.420313 v -4.06875 h 0.890625 v 4.120313 q 0,0.801562 -0.342187,1.382812 -0.3375,0.58125 -0.960938,0.890625 -0.61875,0.304688 -1.4625,0.304688 z" />
        <path
           id="path848"
           style="font-style:normal;font-variant:normal;font-weight:normal;font-stretch:normal;font-family:'Liberation Sans';-inkscape-font-specification:'Liberation Sans';fill:#ffffff;fill-opacity:1;stroke:#ffffff;stroke-width:0.432124;stroke-miterlimit:4;stroke-dasharray:none;stroke-opacity:1"
           d="m 24.531642,72.185133 q 0,1.021875 -0.398437,1.790625 -0.398438,0.764063 -1.129688,1.171875 -0.73125,0.407813 -1.6875,0.407813 h -2.470312 v -6.604688 h 2.184375 q 1.678125,0 2.5875,0.84375 0.914062,0.839063 0.914062,2.390625 z m -0.9,0 q 0,-1.228125 -0.675,-1.870312 -0.670312,-0.646875 -1.945312,-0.646875 h -1.270313 v 5.170312 h 1.471875 q 0.726563,0 1.275,-0.31875 0.553125,-0.31875 0.848438,-0.91875 0.295312,-0.6 0.295312,-1.415625 z" />
      </g>
    </g>
  </g>
</svg>
